<svg id="e630jVLI9fl1" xmlns="http://www.w3.org/2000/svg" xmlns:xlink="http://www.w3.org/1999/xlink" viewBox="0 0 640 480" shape-rendering="geometricPrecision" text-rendering="geometricPrecision"><rect width="1.75821" height="24.9319" rx="0" ry="0" transform="matrix(1 0 0 1.10209 319.121 44.117)" fill="#00a5ff" stroke-width="0"/><rect width="26.7051" height="442.236" rx="0" ry="0" transform="translate(148.658 18.8821)" fill="#00a5ff" stroke-width="0"/><rect width="312.983" height="22.6617" rx="0" ry="0" transform="matrix(1.10517 0 0 1 148.658 438.456)" fill="#00a5ff" stroke-width="0"/><rect width="254.688" height="26.5075" rx="0" ry="0" transform="translate(148.658 18.8821)" fill="#00a5ff" stroke-width="0"/><rect width="87.8249" height="19.211" rx="0" ry="0" transform="matrix(.707107-.707107 0.707107 0.707107 162.011 94.5802)" fill="#00a5ff" stroke-width="0"/><g transform="matrix(.812935 0 0 0.796282 59.860706 42.364799)"><ellipse rx="36.7651" ry="36.7651" transform="translate(320 71.8741)" fill="#f6c16e" stroke-width="0"/><rect width="12.255" height="165.609" rx="0" ry="0" transform="translate(313.872 103.34)" fill="#f6c16e" stroke-width="0"/><rect width="116.09" height="7.95" rx="0" ry="0" transform="matrix(.573576-.819152 0.819152 0.573576 247.983 209.837)" fill="#f6c16e" stroke-width="0"/></g></svg>